<?xml version="1.0" encoding="UTF-8"?>
<svg width="512" height="512" viewBox="0 0 512 512" fill="none" xmlns="http://www.w3.org/2000/svg">
    <!-- Heart background -->
    <path d="M256 480C256 480 448 320 448 192C448 86 362 80 256 192C150 80 64 86 64 192C64 320 256 480 256 480Z" 
          fill="url(#gradient1)" stroke="none"/>
    
    <!-- Paw print -->
    <g transform="translate(128, 160) scale(0.5)">
        <!-- Paw pads -->
        <circle cx="200" cy="240" r="40" fill="white"/>
        <circle cx="120" cy="200" r="35" fill="white"/>
        <circle cx="280" cy="200" r="35" fill="white"/>
        <circle cx="160" cy="160" r="35" fill="white"/>
        <circle cx="240" cy="160" r="35" fill="white"/>
        
        <!-- Main paw pad outline -->
        <path d="M200 300C261 300 310 260 310 200C310 160 290 130 250 110C210 90 190 90 150 110C110 130 90 160 90 200C90 260 139 300 200 300Z" 
              fill="white" fill-opacity="0.6"/>
    </g>
    
    <!-- Gradients -->
    <defs>
        <linearGradient id="gradient1" x1="0%" y1="0%" x2="100%" y2="100%">
            <stop offset="0%" style="stop-color:#40E0D0"/>
            <stop offset="100%" style="stop-color:#B784B7"/>
        </linearGradient>
    </defs>
</svg>
