<?xml version="1.0" encoding="UTF-8"?>
<svg width="120" height="40" viewBox="0 0 120 40" fill="none" xmlns="http://www.w3.org/2000/svg">
    <!-- Playful Dog -->
    <path d="M25 32c-3 0-5-2-5-5V15c0-2 2-4 4-4h4c2 0 4 2 4 4v5c0 1 0 2 1 3l2 2c1 1 1 2 0 3l-2 2c-1 1-2 2-4 2h-4z" fill="var(--lilac, #B784B7)"/>
    <circle cx="28" cy="11" r="2" fill="var(--lilac, #B784B7)"/> <!-- Dog ear -->
    <circle cx="24" cy="16" r="1.5" fill="white"/> <!-- Dog eye -->
    <path d="M22 19c1 1 2 1 3 0" stroke="white" stroke-width="1" fill="none"/> <!-- Dog smile -->
    <path d="M30 20c2-1 4 0 4 2" fill="var(--lilac, #B784B7)"/> <!-- Dog paw reaching -->
    
    <!-- Playful Cat -->
    <path d="M45 32c-2 0-4-2-4-4V18c0-2 2-4 4-4h3c2 0 3 1 4 2l2 3c1 1 0 3-1 4l-2 2c-1 1-2 1-3 1h-3z" fill="var(--turquoise, #40E0D0)"/>
    <path d="M41 18l3-6 3 6" fill="var(--turquoise, #40E0D0)"/> <!-- Cat ears -->
    <circle cx="43" cy="20" r="1.5" fill="white"/> <!-- Cat eye -->
    <path d="M42 23h2" stroke="white" stroke-width="1"/> <!-- Cat mouth -->
    <path d="M38 24c-2-1-2-3 0-4" fill="var(--turquoise, #40E0D0)"/> <!-- Cat paw reaching -->
    
    <!-- Ball between them -->
    <circle cx="34" cy="26" r="3" fill="var(--lilac, #B784B7)" opacity="0.6"/>
    
    <!-- Heart above -->
    <path d="M34 12c1-1 2-1 3 0s1 2 0 3l-1.5 1.5-1.5-1.5c-1-1-1-2 0-3z" fill="#FF69B4" opacity="0.6"/>
</svg>
