<?xml version="1.0" encoding="UTF-8"?>
<svg width="120" height="40" viewBox="0 0 120 40" fill="none" xmlns="http://www.w3.org/2000/svg">
    <!-- Dog silhouette -->
    <path d="M20 35c-2 0-4-2-4-4V20c0-2 2-4 4-4h4c1 0 2 1 3 2l3 3v10c0 2-2 4-4 4h-6z" fill="var(--lilac, #B784B7)"/>
    <circle cx="24" cy="16" r="2" fill="var(--lilac, #B784B7)"/> <!-- Dog ear -->
    <circle cx="18" cy="22" r="1.5" fill="white"/> <!-- Dog eye -->
    <path d="M16 25c1 1 2 1 3 0" stroke="white" stroke-width="1" fill="none"/> <!-- Dog smile -->
    
    <!-- Cat silhouette -->
    <path d="M45 35c-2 0-4-2-4-4V20c0-2 2-4 4-4h4c2 0 4 2 4 4v11c0 2-2 4-4 4h-4z" fill="var(--turquoise, #40E0D0)"/>
    <path d="M41 20l4-8 4 8" fill="var(--turquoise, #40E0D0)"/> <!-- Cat ears -->
    <circle cx="43" cy="22" r="1.5" fill="white"/> <!-- Cat eye -->
    <circle cx="47" cy="22" r="1.5" fill="white"/> <!-- Cat eye -->
    <path d="M43 26h4" stroke="white" stroke-width="1"/> <!-- Cat mouth -->
    
    <!-- Paw print -->
    <circle cx="80" cy="25" r="4" fill="var(--lilac, #B784B7)"/> <!-- Main pad -->
    <circle cx="75" cy="20" r="2" fill="var(--lilac, #B784B7)"/> <!-- Toe -->
    <circle cx="80" cy="18" r="2" fill="var(--lilac, #B784B7)"/> <!-- Toe -->
    <circle cx="85" cy="20" r="2" fill="var(--lilac, #B784B7)"/> <!-- Toe -->
</svg>
